<?xml version="1.0" encoding="UTF-8"?>
<svg id="uuid-0e61d65c-fa08-4d79-bddf-1db310a8192e" data-name="Capa 1" xmlns="http://www.w3.org/2000/svg" viewBox="0 0 150 150">
    <g>
	<polygon points="75 0 10.5 37.239 10.5 111.717 139.5 37.239 139.5 37.239 75 0" style="fill: #efc446;"/>
	<polygon points="139.5 37.239 10.5 111.717 10.5 111.717 75 148.956 139.5 111.717 139.5 37.239" style="fill: #e09436;"/>
    </g>
    <g>
	<polygon points="42.75 18.62 10.5 37.239 42.75 18.62 42.75 18.62" style="fill: #e09530;"/>
	<polygon points="139.5 37.239 139.5 37.239 139.5 37.239 107.25 18.62 107.25 18.62 139.5 37.239" style="fill: #e09530;"/>
	<polygon points="107.25 55.859 139.5 74.478 139.5 37.239 107.25 55.859" style="fill: #e29b3a;"/>
	<polygon points="10.5 37.239 10.5 74.478 42.75 55.859 10.5 37.239" style="fill: #f9ec8a;"/>
	<polygon points="10.5 74.478 10.5 111.717 42.75 93.098 10.5 74.478" style="fill: #f5dd65;"/>
	<polygon points="139.5 111.717 139.5 74.478 107.25 93.098 139.5 111.717" style="fill: #cf802f;"/>
	<polygon points="42.75 55.859 75 74.478 107.25 55.859 75 37.239 42.75 55.859" style="fill: #efc446;"/>
	<polygon points="10.5 111.717 10.5 111.717 42.75 130.337 10.5 111.717 10.5 111.717" style="fill: #e09530;"/>
	<polygon points="107.25 93.098 75 74.478 42.75 93.098 75 111.717 107.25 93.098" style="fill: #e09436;"/>
	<polygon points="42.75 130.337 75 148.956 107.25 130.337 75 111.717 42.75 130.337" style="fill: #d28730;"/>
	<polygon points="75 0 42.75 18.62 42.75 18.62 75 0" style="fill: #e09530;"/>
	<polygon points="107.25 18.62 107.25 18.62 75 0 107.25 18.62" style="fill: #e09530;"/>
	<polygon points="42.75 18.62 75 37.239 107.25 18.62 75 0 42.75 18.62" style="fill: #f4d756;"/>
	<polygon points="75 37.239 42.75 18.62 10.5 37.239 42.75 55.859 75 37.239 75 37.239" style="fill: #f8e676;"/>
	<polygon points="75 74.478 42.75 55.859 10.5 74.478 42.75 93.098 75 74.478 75 74.478" style="fill: #f4d350;"/>
	<polygon points="42.75 93.098 10.5 111.717 10.5 111.717 42.75 130.337 75 111.717 75 111.717 42.75 93.098" style="fill: #e8b03f;"/>
	<polygon points="107.25 55.859 139.5 37.239 139.5 37.239 107.25 18.62 75 37.239 75 37.239 75 37.239 107.25 55.859" style="fill: #eab440;"/>
	<polygon points="75 74.478 75 74.478 107.25 93.098 139.5 74.478 139.5 74.478 107.25 55.859 75 74.478 75 74.478" style="fill: #d88b32;"/>
	<polygon points="139.5 111.717 107.25 93.098 75 111.717 75 111.717 75 111.717 107.25 130.337 139.5 111.717" style="fill: #c4752e;"/>
    </g>
</svg>