<?xml version="1.0" encoding="UTF-8"?>
<svg id="uuid-da569c4c-b205-4ab7-941c-2591bedeb3c9" data-name="Capa 1" xmlns="http://www.w3.org/2000/svg" viewBox="0 0 243 35.061">
    <path d="M0,1.677V0h24.656v1.677h-11.391v32.842h-1.776V1.677H0Z" style="fill: #ffffff;"/>
    <path d="M23.867,34.519V9.863h1.726v3.846c.987-.789,2.457-1.635,4.414-2.54,1.955-.904,3.739-1.504,5.35-1.8v1.775c-1.447.296-2.983.789-4.611,1.48-1.627.69-2.885,1.315-3.772,1.874l-1.381.838v19.182h-1.726Z" style="fill: #ffffff;"/>
    <path d="M56.413,17.112v14.202c.131,1.183,1.364,1.874,3.698,2.071l-.099,1.528c-2.4,0-4.093-.69-5.079-2.071-3.353,1.414-6.674,2.12-9.961,2.12-2.039,0-3.624-.608-4.758-1.824-1.135-1.216-1.702-2.95-1.702-5.202s.543-3.97,1.628-5.153,2.81-1.89,5.178-2.121l9.369-.986v-2.564c0-2.104-.452-3.632-1.356-4.586-.905-.953-2.277-1.43-4.117-1.43-1.874,0-4.471.214-7.791.641l-1.529.197-.148-1.628c3.682-.592,6.838-.887,9.468-.887,4.799,0,7.2,2.564,7.2,7.693ZM41.521,23.818c-.789.887-1.183,2.219-1.183,3.994s.402,3.149,1.208,4.118c.805.97,1.931,1.455,3.378,1.455s2.975-.173,4.586-.518c1.611-.345,2.877-.682,3.797-1.011l1.38-.493v-10.109l-9.172.937c-1.874.197-3.206.74-3.994,1.628Z" style="fill: #ffffff;"/>
    <path d="M64.45,2.712V0h1.726v2.712h-1.726ZM64.45,34.519V9.863h1.726v24.656h-1.726Z" style="fill: #ffffff;"/>
    <path d="M75.693,34.519h-1.726V9.863h1.726v1.973c2.926-1.61,5.918-2.416,8.975-2.416s5.112.831,6.164,2.49c1.052,1.661,1.578,4.924,1.578,9.789v12.821h-1.726v-12.722c0-4.34-.394-7.224-1.183-8.654s-2.515-2.145-5.178-2.145c-1.315,0-2.688.206-4.118.616-1.43.412-2.54.814-3.329,1.209l-1.183.641v21.056Z" style="fill: #ffffff;"/>
    <path d="M115.734,33.039l1.479-.099.099,1.578c-3.682.296-6.723.444-9.123.444-3.485-.033-5.901-1.093-7.249-3.181-1.348-2.087-2.021-5.284-2.021-9.591,0-8.514,3.32-12.772,9.961-12.772,3.123,0,5.466.937,7.027,2.81,1.561,1.874,2.343,4.882,2.343,9.024v1.628h-17.506c0,3.55.559,6.188,1.676,7.915,1.117,1.726,2.975,2.589,5.573,2.589s5.178-.115,7.742-.345ZM100.743,21.303h15.681c0-3.715-.601-6.361-1.8-7.939-1.2-1.578-3.115-2.367-5.745-2.367-5.424,0-8.136,3.436-8.136,10.306Z" style="fill: #ffffff;"/>
    <path d="M124.709,34.519V9.863h1.726v3.846c.987-.789,2.457-1.635,4.414-2.54,1.955-.904,3.739-1.504,5.35-1.8v1.775c-1.447.296-2.983.789-4.611,1.48-1.627.69-2.885,1.315-3.772,1.874l-1.381.838v19.182h-1.726Z" style="fill: #ffffff;"/>
    <path d="M171.801,34.519v-14.596h-14.596v14.596h-5.474V.74h5.474v14.399h14.596V.74h5.523v33.779h-5.523Z" style="fill: #ffffff;"/>
    <path d="M184.425,5.671V0h5.375v5.671h-5.375ZM184.425,34.519V9.863h5.375v24.656h-5.375Z" style="fill: #ffffff;"/>
    <path d="M193.992,9.863h5.621l4.734,20.07h1.578l4.932-20.07h5.473l-6.411,24.656h-9.566l-6.361-24.656Z" style="fill: #ffffff;"/>
    <path d="M237.683,30.081l1.381-.148.099,3.994c-3.748.756-7.069,1.134-9.961,1.134-3.649,0-6.271-1.002-7.865-3.008-1.595-2.005-2.391-5.21-2.391-9.616,0-8.745,3.567-13.117,10.701-13.117,6.904,0,10.356,3.764,10.356,11.292l-.345,3.847h-15.287c.033,2.039.476,3.534,1.331,4.487.855.954,2.449,1.43,4.783,1.43s4.734-.098,7.2-.296ZM234.724,20.317c0-2.432-.386-4.134-1.159-5.104-.773-.969-2.08-1.455-3.92-1.455s-3.181.51-4.019,1.529c-.838,1.019-1.274,2.696-1.306,5.03h10.404Z" style="fill: #ffffff;"/>
</svg>